<svg fill="#000000" xmlns="http://www.w3.org/2000/svg" viewBox="0 0 50 50" width="30px" height="30px"><path d="M22.58 28c.42 1.97 1.05 3.93 1.72 5.18-1.1 1.8-2.4 2.82-3.68 2.82C17.29 36 17 33.36 17 32.12c0-.19-.06-5.12 3.12-5.12 1.26 0 2.23.81 2.23.81C22.42 27.88 22.5 27.94 22.58 28zM26.29 14.05c.47.66.75 2.69.75 7.45 0 2.53-.12 5.52-1.05 8.09-.62-2-1.03-4.7-1.03-8.22C24.96 18.13 25.68 15.09 26.29 14.05z"/><path d="M41,4H9C6.24,4,4,6.24,4,9v32c0,2.76,2.24,5,5,5h32c2.76,0,5-2.24,5-5V9C46,6.24,43.76,4,41,4z M35.93,28.84c-0.76,2.34-2.89,8.14-6.11,8.14c-1.02,0-2.39-0.04-3.7-1.32c-1.47,2-3.3,3.34-5.47,3.34C16.06,39,14,35.51,14,32.05c0-3.67,1.88-8,6.13-8c0.72,0,1.38,0.13,1.95,0.33c-0.08-1-0.08-1.8-0.08-3C22,21.27,22.04,11,26.17,11C28.14,11,30,12.77,30,21.5c0,3.12-0.53,7.65-2.38,11.38c0.8,1.04,1.6,1.37,2.13,1.12c1.5-0.72,2.46-3.25,3.36-6.01c0.25-0.75,1.08-1.16,1.85-0.93C35.74,27.3,36.18,28.1,35.93,28.84z"/></svg>